PathFileType	4	(X/Y/Z)	C:\Users\ebm\Documents\Erivelton\Erivelton2\wc4.trc
DataRate	CameraRate	NumFrames	NumMarkers	Units	OrigDataRate	OrigDataStartFrame	OrigNumFrames
150.00	150.00	      35	28	mm	150.00	309	      1232
Frame#	Time	IJ			PX			C7			T8			RAC			RAS			RPS			RAI			RPI			RLE			RME			RRS			RUS			R3M			R5M			LAC			LAS			LPS			LAI			LPI			LLE			LME			LRS			LUS			L3M			L5M			RW			LW			V_mid_elbow_r			V_mid_elbow_l			V_mid_wrist_r			V_mid_wrist_l			V_mid_trunk_low			V_mid_trunk_upp			
		X1	Y1	Z1	X2	Y2	Z2	X3	Y3	Z3	X4	Y4	Z4	X5	Y5	Z5	X6	Y6	Z6	X7	Y7	Z7	X8	Y8	Z8	X9	Y9	Z9	X10	Y10	Z10	X11	Y11	Z11	X12	Y12	Z12	X13	Y13	Z13	X14	Y14	Z14	X15	Y15	Z15	X16	Y16	Z16	X17	Y17	Z17	X18	Y18	Z18	X19	Y19	Z19	X20	Y20	Z20	X21	Y21	Z21	X22	Y22	Z22	X23	Y23	Z23	X24	Y24	Z24	X25	Y25	Z25	X26	Y26	Z26	X27	Y27	Z27	X28	Y28	Z28	

309	2.053							-1594.91528	1127.52136	-73.68554	-1701.95569	993.39313	-60.86845	-1552.10925	1068.51196	134.11363																																																																						
310	2.060							-1588.01306	1127.63232	-73.52965	-1695.30652	993.66364	-60.75302	-1545.93555	1068.72510	133.99419				-1676.86462	985.26538	215.21294																												-1673.05884	972.77002	-331.04340																																		
311	2.067							-1581.08081	1127.74658	-73.39426	-1688.60815	993.92383	-60.60202	-1539.46509	1068.82117	134.09985				-1671.59888	986.50928	214.11737																												-1667.45850	974.14081	-330.33749	-1698.80457	994.51715	-299.40997																															
312	2.073							-1574.18274	1127.83276	-73.21182	-1681.95300	994.23511	-60.48187	-1532.97229	1068.75330	134.09552				-1666.29285	987.63733	213.17067																												-1661.96313	975.31958	-329.64087	-1692.87012	996.09271	-298.53876																															
313	2.080							-1567.28516	1127.88196	-73.04241	-1675.31909	994.46844	-60.30814	-1526.64343	1068.85962	134.17874				-1660.86023	988.49573	212.30634																												-1656.31006	976.42413	-328.97501	-1686.86584	997.40686	-297.70471																															
314	2.087							-1560.39368	1127.92163	-72.90807	-1668.69849	994.76599	-60.11926	-1520.11206	1068.75342	134.23409				-1655.34424	989.12366	211.43217																												-1650.60925	977.29810	-328.30991	-1680.83191	998.52380	-296.87494																															
315	2.093							-1553.50110	1127.95752	-72.74677	-1662.02637	995.03967	-59.94444	-1513.63367	1068.55969	134.36522				-1649.72510	989.53088	210.64642																												-1644.85925	977.97430	-327.64087	-1674.78833	999.39984	-296.09698																															
316	2.100							-1546.55469	1127.94690	-72.60890	-1655.39905	995.30096	-59.76699	-1507.19141	1068.41589	134.49429				-1644.05432	989.70605	209.99777																												-1639.05273	978.51855	-327.05008	-1668.67297	1000.07446	-295.29959																															
317	2.107							-1539.65637	1127.99011	-72.44585	-1648.76538	995.57587	-59.54871	-1500.63794	1068.09143	134.64624				-1638.20935	989.54480	209.30334																												-1633.10437	978.82739	-326.42145	-1662.54712	1000.50922	-294.56543																															
318	2.113							-1532.76868	1128.02197	-72.26720	-1642.18713	995.86975	-59.34470	-1494.10913	1067.67957	134.86234				-1632.26831	989.12219	208.76669																												-1627.19373	979.03845	-325.86221	-1656.40027	1000.76654	-293.87561																															
319	2.120							-1525.89001	1128.04126	-72.09513	-1635.59216	996.15564	-59.12864	-1487.71851	1067.34338	135.10495				-1626.52771	988.80261	208.53041																												-1621.14673	979.00592	-325.37112	-1650.19336	1000.76685	-293.29083																															
320	2.127							-1519.03174	1128.02356	-71.91801	-1629.05420	996.38556	-58.92321	-1481.33105	1066.91968	135.38350				-1620.34839	987.84021	208.22906																												-1614.96973	978.78870	-324.82538	-1643.96643	1000.61597	-292.70575																															
321	2.133							-1512.27185	1128.00183	-71.70009	-1622.49390	996.60449	-58.72662	-1474.79749	1066.29297	135.73172				-1614.15906	986.67828	208.03439																									-1491.61389	1058.29517	-249.20471	-1608.75806	978.42059	-324.39337	-1637.70215	1000.26294	-292.24844																															
322	2.140							-1505.52588	1127.91443	-71.47264	-1616.01038	996.75592	-58.56425	-1468.33167	1065.71460	136.03360				-1607.88928	985.26428	207.86200																									-1485.14551	1058.03625	-249.02647	-1602.47559	977.88416	-324.03943	-1631.34241	999.71924	-291.87918																															
323	2.147							-1498.91687	1127.81750	-71.25543	-1609.59851	996.93701	-58.37614	-1462.02783	1065.22388	136.31773				-1601.57031	983.61792	207.76447																									-1478.61719	1057.70190	-248.87048	-1596.08447	977.16071	-323.76028	-1624.98669	999.00751	-291.62540																															
324	2.153							-1492.29260	1127.68896	-71.02332	-1603.12781	997.06006	-58.14069	-1455.65271	1064.70483	136.67317				-1595.19556	981.82153	207.76166																									-1472.10291	1057.30872	-248.68913	-1589.66711	976.21423	-323.58981	-1618.58813	998.10217	-291.53162																															
325	2.160							-1485.70825	1127.50684	-70.84796	-1596.74512	997.14056	-57.91305	-1449.16943	1064.02869	137.02838				-1588.79236	979.86365	207.78557	-1620.01416	895.96075	244.76631																						-1465.58545	1056.91907	-248.56711	-1583.17493	975.11890	-323.49506	-1612.23877	997.06525	-291.50024																															
326	2.167							-1479.15808	1127.34424	-70.67041	-1590.33875	997.21173	-57.72544	-1442.74805	1063.46619	137.31924				-1582.30554	977.75311	207.89268	-1612.90808	893.37708	244.34920																						-1458.99182	1056.51721	-248.46193	-1576.67346	973.89520	-323.48688	-1605.86084	995.77905	-291.62732																															
327	2.173							-1472.60352	1127.17798	-70.54466	-1583.92090	997.28094	-57.56631	-1436.42810	1062.96765	137.56200				-1575.70959	975.49396	208.04474	-1605.67419	890.83008	244.18130																						-1452.57727	1056.11523	-248.37997	-1570.17200	972.52197	-323.57504	-1599.51721	994.39264	-291.86810																															
328	2.180							-1466.02502	1127.00366	-70.42467	-1577.55530	997.37024	-57.42869	-1429.85144	1062.30298	137.85881				-1569.05005	973.20892	208.30240	-1598.15393	888.13361	244.22684																						-1446.16077	1055.78101	-248.36879	-1563.56824	970.92102	-323.71350	-1593.25513	992.80542	-292.19156																															
329	2.187							-1459.46777	1126.84082	-70.30778	-1571.20947	997.43445	-57.30596	-1423.28638	1061.67175	138.06166				-1562.26135	970.86847	208.59392	-1590.54456	885.50055	244.46585																						-1439.64209	1055.42029	-248.37402	-1557.05115	969.38556	-323.97531	-1586.92896	991.07013	-292.61072	-1613.85596	921.75159	-356.29898																												
330	2.193							-1452.91809	1126.66650	-70.20660	-1564.89221	997.50696	-57.14880	-1416.75244	1061.18640	138.20703				-1555.37170	968.56415	209.00938	-1582.74487	882.74780	244.76663																						-1433.19641	1055.06763	-248.34198	-1550.35608	967.72699	-324.28442	-1580.53101	989.22327	-293.08786	-1606.61255	919.45593	-356.66162																												
331	2.200							-1446.36682	1126.46118	-70.07539	-1558.60303	997.66541	-57.01876	-1409.94556	1060.56128	138.43300				-1548.45081	966.31281	209.56731	-1574.91028	880.30170	245.22978																						-1426.72742	1054.77380	-248.36653	-1543.57520	966.05182	-324.60825	-1574.03772	987.34570	-293.60416	-1599.34253	917.28827	-357.14841	-1636.35999	940.04663	-323.60947																									
332	2.207							-1439.92932	1126.25818	-69.93091	-1552.36487	997.77844	-56.88371	-1402.96875	1059.81250	138.75119				-1541.43945	964.20270	210.23436	-1567.10168	877.99408	246.14325																						-1420.11243	1054.41992	-248.40030	-1536.62781	964.41522	-324.96512	-1567.49280	985.49341	-294.14194	-1591.81311	915.03290	-357.74036	-1629.24487	937.58533	-324.35541																									
333	2.213							-1433.43555	1126.06201	-69.77248	-1546.09485	997.92474	-56.76720	-1396.17834	1059.22925	138.99631				-1534.14380	962.29187	211.16441	-1559.13403	875.72296	246.85132																						-1413.54333	1054.08069	-248.45056	-1529.60754	962.90424	-325.38196	-1560.78394	983.62769	-294.65378	-1584.20166	913.07782	-358.41125	-1621.93030	935.15228	-325.10812																									
334	2.220							-1426.89050	1125.88904	-69.56519	-1539.87830	998.09210	-56.63593	-1389.06934	1058.39001	139.25314				-1526.96167	960.23816	211.88483	-1551.13696	873.42377	247.65428																						-1406.87451	1053.67542	-248.45322	-1522.47620	961.42627	-325.77820	-1553.95496	981.80212	-295.12723	-1576.40894	911.11255	-359.07813	-1614.47742	932.79272	-325.90488																									
335	2.227							-1420.30750	1125.73206	-69.35123	-1533.61768	998.31592	-56.45894	-1382.08020	1057.60339	139.50491				-1519.74316	958.38391	212.86829	-1543.29810	871.42102	248.76909																						-1400.13611	1053.26709	-248.43433	-1515.22571	960.05133	-326.19327	-1547.01270	980.01678	-295.59781	-1568.64343	909.37360	-359.86395	-1606.99146	930.48621	-326.75366																									
336	2.233							-1413.70911	1125.58203	-69.12867	-1527.36499	998.51123	-56.30284	-1375.09546	1056.73584	139.84149				-1512.41785	956.63141	213.86345	-1535.34143	869.45844	249.61990	-1570.48682	909.69763	244.66777																			-1393.46619	1052.83887	-248.42760	-1507.89734	958.75336	-326.71909	-1539.98718	978.28375	-296.17328	-1560.66418	907.59808	-360.74701	-1599.36584	928.24524	-327.74747																									
337	2.240							-1407.04517	1125.44739	-68.87460	-1521.09900	998.71411	-56.12000	-1367.97620	1055.81897	140.21396				-1504.98938	955.12781	214.88948	-1527.33423	867.77405	250.46582	-1562.88794	907.94055	246.06638																			-1386.61890	1052.33594	-248.34241	-1500.55310	957.45062	-327.34790	-1532.87256	976.60223	-296.89877	-1552.60181	905.87030	-361.73743	-1591.63940	926.13708	-328.87442																									
338	2.247							-1400.41626	1125.30408	-68.62093	-1514.76782	998.90491	-55.93348	-1360.91931	1055.01526	140.56766				-1497.53418	953.89734	216.13744	-1519.46838	866.36072	251.55449	-1555.05212	906.44415	247.43474																			-1379.83826	1051.84351	-248.33220	-1493.01843	956.09375	-328.12076	-1525.64954	974.95392	-297.79474	-1544.47290	904.16870	-362.85452	-1583.87769	924.12256	-330.23761													-1444.61328	563.89496	-385.07834										
339	2.253							-1393.78149	1125.16455	-68.34631	-1508.47510	999.12164	-55.73322	-1353.82275	1054.26782	140.89648				-1490.05383	952.95905	217.26051	-1511.48254	865.18176	252.37994	-1547.22864	905.25061	248.85446																			-1373.10315	1051.30322	-248.33336	-1485.34729	954.77527	-328.91119	-1518.42700	973.41443	-298.81097	-1536.25098	902.59875	-364.06909	-1576.06873	922.34186	-331.77493													-1432.95728	563.52704	-385.62814										
340	2.260							-1387.21082	1124.93677	-68.08797	-1502.17627	999.30139	-55.51703	-1346.70886	1053.67139	141.31175				-1482.50720	952.23926	218.61092	-1503.62231	864.22919	253.50975	-1539.46423	904.40753	250.43095																			-1366.33533	1050.75940	-248.22821	-1477.66772	953.55420	-329.74762	-1511.10449	972.03662	-299.96295	-1528.08582	901.25244	-365.39841	-1568.24792	920.75958	-333.53308													-1421.06360	563.23407	-386.11249										
341	2.267							-1380.64917	1124.72913	-67.85914	-1495.80823	999.41064	-55.32804	-1339.44104	1053.09290	141.66818				-1475.03699	951.77942	219.81940	-1495.78113	863.53192	254.52711	-1531.68958	903.66205	251.81268																			-1359.61084	1050.24548	-248.17892	-1470.00159	952.53046	-330.60538	-1503.77856	970.88489	-301.20349	-1519.84814	900.02014	-366.84082	-1560.39331	919.43634	-335.34818													-1409.25586	563.00745	-386.40311										
342	2.273							-1374.11646	1124.53674	-67.63723	-1489.45374	999.53552	-55.12317	-1332.20935	1052.68774	141.93654				-1467.55408	951.51056	221.27834	-1487.81116	862.94604	255.60718	-1523.95801	903.01599	253.25446																			-1352.88110	1049.75757	-248.12566	-1462.29724	951.70569	-331.47778	-1496.46045	969.94403	-302.50439	-1511.52808	898.99902	-368.37082	-1552.54028	918.34888	-337.28696													-1397.47888	562.76306	-386.60828										
343	2.280							-1367.62891	1124.33618	-67.43491	-1483.09753	999.66766	-54.91809	-1325.31543	1052.70642	142.13962				-1460.08960	951.15613	222.51302	-1479.83057	862.38251	256.63422	-1516.13330	902.33240	254.63495	-1552.08093	843.12390	278.99902																-1346.05127	1049.31836	-247.99973	-1454.51392	950.99292	-332.35345	-1489.13208	969.18323	-303.83109	-1503.23206	898.24823	-369.87808	-1544.60388	917.42517	-339.28528													-1385.68201	562.59338	-386.63510										
